<svg width="83" height="304" viewBox="0 0 83 304" fill="none" xmlns="http://www.w3.org/2000/svg">
<path d="M23.7594 288.027C28.8792 287.003 34.5842 288.027 71.0082 288.027C107.432 288.027 128.35 286.857 138.444 285.248C148.537 283.639 171.064 287.442 164.921 292.855C158.777 298.267 98.6553 306.02 88.4156 301.632C78.176 297.243 -1.69352 306.605 4.74285 295.927C9.89195 287.384 19.566 287.101 23.7594 288.027Z" fill="black" fill-opacity="0.13"/>
<g clip-path="url(#clip0_1_378)">
<path d="M54.9678 75.103C54.231 75.5194 53.4776 75.5721 53.2781 75.2226L51.0969 71.3755C50.8974 71.026 51.3334 70.4059 52.0676 69.9882C52.8044 69.5718 53.5617 69.5177 53.7587 69.8659L55.9398 73.713C56.1394 74.0625 55.702 74.6853 54.9678 75.103Z" fill="#2B242A"/>
<path d="M52.2121 69.2834C52.2121 69.2834 51.2686 70.3905 52.7399 72.9844C54.2111 75.5783 55.6477 75.3371 55.6477 75.3371C55.6477 75.3371 72.4371 64.9481 74.6672 63.6857C76.8973 62.4232 74.8116 57.6675 72.1213 59.1956C69.4309 60.7236 52.2121 69.2834 52.2121 69.2834Z" fill="#BC7BFB"/>
<g style="mix-blend-mode:soft-light">
<path d="M55.4029 74.7828C58.3064 72.9879 71.8901 64.597 73.8788 63.4669L73.9205 63.4418C71.815 62.2476 55.1869 74.2947 55.4029 74.7828Z" fill="white"/>
</g>
<g style="mix-blend-mode:multiply">
<path d="M55.5986 74.3049C55.277 73.2169 55.2142 72.0868 55.7105 71.0333C56.3386 69.6924 57.4382 68.6524 58.5554 67.7092C61.1998 65.4801 64.0005 63.5628 67.416 62.7671C69.9313 62.1834 72.6982 62.1085 74.9722 63.464C76.6931 61.9572 74.6748 57.7467 72.1213 59.1954C69.4335 60.7183 52.2135 69.2806 52.2135 69.2806C52.2135 69.2806 51.27 70.3877 52.7412 72.9816C54.2125 75.5755 55.649 75.3343 55.649 75.3343L55.9267 75.1613C55.7965 74.8843 55.6869 74.598 55.5986 74.3049Z" fill="#BC7BFB"/>
</g>
<g style="mix-blend-mode:soft-light">
<g style="mix-blend-mode:soft-light">
<path d="M56.9404 74.5395L52.0735 71.4432C52.1698 71.7774 52.2942 72.1027 52.4455 72.4158L56.3511 74.9015C56.5141 74.8089 56.7174 74.6743 56.9404 74.5395Z" fill="white"/>
</g>
<g style="mix-blend-mode:soft-light">
<path d="M59.3753 73.0349L52.9194 68.9273L52.2671 69.2581L58.7834 73.4021C58.9776 73.2793 59.1745 73.1578 59.3753 73.0349Z" fill="white"/>
</g>
<g style="mix-blend-mode:soft-light">
<path d="M62.6096 71.0378L56.4926 67.1493C56.2695 67.2579 56.0582 67.369 55.8403 67.4802L62.019 71.4089L62.6096 71.0378Z" fill="white"/>
</g>
<g style="mix-blend-mode:soft-light">
<path d="M65.8477 69.0466L60.0459 65.3591L59.3962 65.6912L65.244 69.4112L65.8477 69.0466Z" fill="white"/>
</g>
<g style="mix-blend-mode:soft-light">
<path d="M69.0914 67.0569L63.6297 63.5794L62.98 63.9116L68.4929 67.4111L69.0914 67.0569Z" fill="white"/>
</g>
<g style="mix-blend-mode:soft-light">
<path d="M72.3435 65.0716L67.1576 61.7887C66.9463 61.8933 66.7271 62.0005 66.5106 62.1221L71.7516 65.4322L72.3435 65.0716Z" fill="white"/>
</g>
<g style="mix-blend-mode:soft-light">
<path d="M74.3129 62.2718L70.6845 59.9651L70.0453 60.3024L74.9633 63.4272L74.3129 62.2718Z" fill="white"/>
</g>
</g>
<path d="M77.6392 61.7124C80.1249 60.3019 100.339 60.5566 105.841 60.7406C104.768 59.2788 93.3186 55.5154 93.3186 55.5154C93.3186 55.5154 95.5308 57.7308 92.1809 57.8901C87.5871 58.1117 82.2389 58.2093 81.1714 58.2312C79.4746 58.2593 79.3098 57.3758 80.0387 56.2608C80.4809 55.5818 83.3368 50.9976 86.0421 47.0633C87.3993 45.0902 88.6896 47.3895 88.6896 47.3895C88.6896 47.3895 93.0102 31.3876 90.608 33.8796C87.8414 39.6526 77.9793 56.0319 75.2823 57.5535C72.5853 59.0751 75.1522 63.1189 77.6392 61.7124Z" fill="#352E35"/>
<path d="M125.186 54.957C124.625 54.5167 124.1 54.0333 123.615 53.5112C122.835 54.0642 122.028 54.5776 121.197 55.0495C110.345 61.1858 97.5895 59.1465 92.6708 50.4768C88.1725 42.5621 91.7665 31.887 100.646 25.4049C100.165 24.8944 99.7436 24.332 99.3878 23.7282C89.4164 30.9507 85.368 42.912 90.3846 51.7539C95.8678 61.4292 110.109 63.7111 122.208 56.8557C123.236 56.2794 124.23 55.6455 125.186 54.957Z" fill="#352E35"/>
<path d="M91.228 51.4064C86.1678 42.481 91.3256 33.4507 93.2977 29.8856C87.7909 36.2619 86.4853 44.8944 90.4403 51.8532C94.7708 59.4927 104.528 62.057 112.876 60.1731C107.997 60.756 95.7607 59.4033 91.228 51.4064Z" fill="#2B242A"/>
<path d="M77.939 62.2417C77.7755 62.3193 77.588 62.3293 77.4171 62.2695C77.2463 62.2098 77.1059 62.0851 77.0265 61.9225L74.8454 58.0753C74.7459 57.9237 74.7107 57.7388 74.7475 57.5612C74.7842 57.3836 74.8899 57.2279 75.0414 57.1282C75.2047 57.0498 75.3925 57.0394 75.5636 57.0992C75.7346 57.159 75.875 57.2843 75.9539 57.4474L78.1336 61.2906C78.2329 61.4429 78.2681 61.6281 78.2317 61.8061C78.1952 61.9842 78.09 62.1407 77.939 62.2417Z" fill="#2B242A"/>
<path d="M74.8336 57.6535L72.6781 58.8759L75.2238 63.3651L77.3794 62.1427L74.8336 57.6535Z" fill="#161013"/>
<path d="M75.3998 63.6815C75.2359 63.7598 75.0476 63.7701 74.8761 63.7101C74.7047 63.65 74.5639 63.5245 74.4847 63.361L72.3049 59.5178C72.2057 59.3655 72.1705 59.1803 72.2069 59.0023C72.2434 58.8242 72.3485 58.6677 72.4996 58.5667C72.6637 58.489 72.8519 58.4793 73.0231 58.5399C73.1944 58.6004 73.3347 58.7262 73.4134 58.8899L75.5932 62.7331C75.6918 62.885 75.7267 63.0695 75.6905 63.2469C75.6544 63.4243 75.55 63.5803 75.3998 63.6815Z" fill="#2B242A"/>
</g>
<path d="M52.9466 124.339C52.0104 121.413 52.5565 98.7398 52.9466 87.7687L58.2809 89.6703C57.8421 94.0588 63.04 107.955 63.04 109.146C66.15 107.162 71.4129 105.664 74.7425 105.03C76.8392 107.322 80.8863 112.081 80.3012 112.783C79.5698 113.66 54.1169 127.996 52.9466 124.339Z" fill="#FF7CA6"/>
<mask id="mask0_1_378" style="mask-type:alpha" maskUnits="userSpaceOnUse" x="52" y="87" width="29" height="38">
<path d="M52.9474 124.339C52.0112 121.413 52.5573 98.7398 52.9474 87.7687L58.2817 89.6703C57.8429 94.0588 63.0408 107.955 63.0408 109.146C66.1508 107.162 71.4137 105.664 74.7433 105.03C76.84 107.322 80.8871 112.081 80.302 112.783C79.5706 113.66 54.1177 127.996 52.9474 124.339Z" fill="#FF7CA6"/>
</mask>
<g mask="url(#mask0_1_378)">
<path d="M51.1925 126.387C50.2563 123.461 50.8024 100.788 51.1925 89.8167L56.5268 91.7183C56.088 96.1067 61.2859 110.003 61.2859 111.194C64.3959 109.21 69.6588 107.712 72.9884 107.078C75.0851 109.37 79.1322 114.129 78.5471 114.831C77.8157 115.708 52.3628 130.044 51.1925 126.387Z" fill="#FB94B5"/>
<path d="M50.315 129.312C49.3788 126.387 49.9249 103.713 50.315 92.7421L55.3568 90.6942C54.9179 95.0826 60.4084 112.929 60.4084 114.119C63.5184 112.135 68.7813 110.638 72.1109 110.003C74.2076 112.295 78.2547 117.054 77.6696 117.756C76.9382 118.634 51.4853 132.969 50.315 129.312Z" fill="#FFAFC9"/>
<path d="M53.3093 95.0826C53.4263 94.2634 52.8705 91.7181 52.5779 90.5479L48.3358 124.485C50.4325 125.119 54.8306 126.445 55.6498 126.679C56.6738 126.972 64.0261 122.215 62.9639 122.291C58.868 122.583 54.3333 124.339 53.8944 123.754C53.4556 123.169 53.6019 122.145 53.6019 120.243C53.6019 118.716 53.4556 111.173 53.3093 110.003C53.163 108.833 53.3093 105.907 53.3093 105.176C53.3093 104.445 53.163 96.1065 53.3093 95.0826Z" fill="#FEF2F7"/>
</g>
<path d="M82.9662 250.424C79.5572 246.223 86.3303 196.482 90.143 172.137C97.3888 169.419 105.12 160.624 108.079 156.566C108.131 157.248 109.086 159.81 112.497 164.595C115.908 169.381 118.042 174.181 118.682 175.983C119.212 193.184 110.273 223.795 105.737 236.951C119.773 238.168 135.646 253.394 141.956 261.035L138.777 271.871C136.773 270.513 129.454 266.463 116.211 261.128C99.657 254.459 87.2274 255.674 82.9662 250.424Z" fill="url(#paint0_linear_1_378)"/>
<mask id="mask1_1_378" style="mask-type:alpha" maskUnits="userSpaceOnUse" x="82" y="156" width="60" height="116">
<path d="M82.9662 250.424C79.5572 246.223 86.3303 196.482 90.143 172.137C97.3888 169.419 105.12 160.624 108.079 156.566C108.131 157.248 109.086 159.81 112.497 164.595C115.908 169.381 118.042 174.181 118.682 175.983C119.212 193.184 110.273 223.795 105.737 236.951C119.773 238.168 135.646 253.394 141.956 261.035L138.777 271.871C136.773 270.513 129.454 266.463 116.211 261.128C99.657 254.459 87.2274 255.674 82.9662 250.424Z" fill="#F89AB8"/>
</mask>
<g mask="url(#mask1_1_378)">
<path d="M79.4662 253.362C76.0573 249.162 82.8304 199.421 86.643 175.075C93.8888 172.357 100.563 162.396 103.523 158.338C103.574 159.02 105.586 162.748 108.997 167.534C112.408 172.32 108.383 173.192 109.024 174.994C109.539 191.705 107.828 221.885 103.511 235.721C103.13 236.36 103.072 237.047 102.977 237.461C102.954 237.563 102.975 237.673 103.048 237.75C103.291 238.006 103.867 238.575 104.253 238.644C118.743 240.932 141.714 262.409 147.811 269.791L135.277 274.81C133.273 273.452 125.954 269.402 112.711 264.067C96.157 257.398 83.7274 258.613 79.4662 253.362Z" fill="#FBC6D7"/>
<path d="M91.0674 192.905C92.8054 188.101 94.8064 175.143 94.0524 168.904C81.7982 178.164 78.819 244.148 78.8387 249.561C78.8543 253.891 112.864 273.769 129.867 283.167L145.185 271.848C138.437 266.655 112.335 256.9 109.283 254.57C105.47 251.659 89.2288 250.693 87.3181 248.214C85.4075 245.734 87.2673 234.171 87.2397 226.564C87.2122 218.958 88.8949 198.911 91.0674 192.905Z" fill="#FEF2F7"/>
</g>
<path d="M91.3464 179.195L74.3778 161.787C53.167 181.096 49.51 197.772 45.4141 205.379C41.3182 212.985 42.4885 210.938 39.124 222.055C35.7596 233.172 22.5943 262.136 22.8868 266.817C23.1209 270.562 28.8356 270.718 31.6637 270.328C56.59 233.348 59.067 220.787 56.9703 218.983C73.9389 208.217 86.8117 187.874 91.3464 179.195Z" fill="#FF7CA6"/>
<mask id="mask2_1_378" style="mask-type:alpha" maskUnits="userSpaceOnUse" x="22" y="161" width="70" height="110">
<path d="M91.3464 179.195L74.3778 161.787C53.167 181.096 49.51 197.772 45.4141 205.379C41.3182 212.985 42.4885 210.938 39.124 222.055C35.7596 233.172 22.5943 262.136 22.8868 266.817C23.1209 270.562 28.8356 270.718 31.6637 270.328C56.59 233.348 59.067 220.787 56.9703 218.983C73.9389 208.217 86.8117 187.874 91.3464 179.195Z" fill="#FF7CA6"/>
</mask>
<g mask="url(#mask2_1_378)">
<path d="M88.4197 179.194L71.4511 161.787C50.2404 181.096 46.5834 197.772 42.4875 205.378C38.3916 212.985 39.5619 210.937 36.1974 222.054C32.8329 233.172 19.6676 262.135 19.9602 266.816C20.1942 270.561 25.9089 270.717 28.7371 270.327C50.5567 237.956 53.809 226.638 54.3314 220.445C54.4058 219.564 55.0629 218.69 54.9166 217.812C55.6613 217.34 56.8232 216.998 57.5496 216.496C73.3755 205.555 84.084 187.492 88.4197 179.194Z" fill="#FEB3CB"/>
<path d="M82.4177 170.71L69.6961 159.739C48.4853 179.048 44.8283 195.724 40.7324 203.331C36.6365 210.938 37.8068 208.89 34.4423 220.007C31.0779 231.124 17.9126 260.088 18.2051 264.769C18.4392 268.514 24.7342 269.401 27.5623 269.011C36.6317 254.968 50.1523 226.2 50.6747 220.007C50.7491 219.125 51.4061 218.252 51.2598 217.374C52.0045 216.901 55.0681 214.951 55.7946 214.448C71.6204 203.507 78.082 179.009 82.4177 170.71Z" fill="#FBC6D7"/>
<path d="M59.8909 183.583C61.1782 181.945 71.2521 169.54 76.1281 163.543C75.4942 162.47 73.7291 160.5 71.7397 161.202C69.2529 162.08 60.7686 167.346 47.8959 179.487C35.0231 191.629 18.2008 264.623 17.3231 266.524C16.621 268.046 20.9314 268.524 23.1743 268.572C27.319 257.894 35.9593 235.718 37.3636 232.441C39.119 228.345 44.3851 212.254 45.1165 210.353C45.8479 208.451 58.2818 185.631 59.8909 183.583Z" fill="#FEF2F7"/>
</g>
<path d="M95.4374 203.623C82.2135 186.303 68.5704 175.927 63.4018 172.904C64.1039 170.68 70.4233 164.663 73.4952 161.933C85.3147 181.827 101.727 168.662 108.456 159.592C124.606 168.603 120.159 189.678 115.917 199.088C111.187 201.039 101.727 204.676 101.727 203.623V193.968C99.738 196.777 96.7051 201.575 95.4374 203.623Z" fill="url(#paint1_linear_1_378)"/>
<mask id="mask3_1_378" style="mask-type:alpha" maskUnits="userSpaceOnUse" x="63" y="159" width="57" height="45">
<path d="M95.4374 203.623C82.2135 186.303 68.5704 175.927 63.4018 172.904C64.1039 170.68 70.4233 164.663 73.4952 161.933C85.3147 181.827 101.727 168.662 108.456 159.592C124.606 168.603 120.159 189.678 115.917 199.088C111.187 201.039 101.727 204.676 101.727 203.623V193.968C99.738 196.777 96.7051 201.575 95.4374 203.623Z" fill="url(#paint2_linear_1_378)"/>
</mask>
<g mask="url(#mask3_1_378)">
<path d="M62.6705 168.808C67.712 172.518 70.9073 174.055 79.3465 182.705C88.8548 190.604 95.0645 197.845 97.1928 199.966C100.718 203.479 99.5918 202.428 99.8259 203.331C108.895 200.99 116.18 198.269 120.744 194.993" stroke="white" stroke-opacity="0.5" stroke-width="0.292562"/>
<path d="M80.0773 174.952C83.9782 176.805 93.3304 179.399 99.5327 174.952C98.2162 178.658 92.482 183.846 80.0773 174.952Z" fill="url(#paint3_linear_1_378)"/>
<path d="M66.3278 172.319C68.2295 174.367 77.4452 182.851 77.2989 184.168L62.0857 172.758L63.5485 167.785L73.3493 160.47C76.275 161.885 81.7166 165.151 80.0783 166.907C78.4399 168.662 76.0799 166.761 75.1047 165.59C72.1791 166.907 71.594 166.907 70.57 167.785C69.546 170.564 66.3278 172.027 66.3278 172.319Z" fill="url(#paint4_linear_1_378)"/>
</g>
<path d="M103.378 131.946C104.314 142.595 108.156 155.692 109.96 160.909C91.9677 186.216 75.5842 170.417 73.8288 164.712C72.4245 160.149 72.5611 142.234 72.8049 133.847C68.8553 131.946 60.8098 121.852 66.9536 116.879C71.8687 112.9 81.0036 105.322 85.7821 101.08H93.9739C103.628 108.248 102.207 118.634 103.378 131.946Z" fill="url(#paint5_linear_1_378)"/>
<mask id="mask4_1_378" style="mask-type:alpha" maskUnits="userSpaceOnUse" x="64" y="101" width="46" height="74">
<path d="M103.377 131.945C104.313 142.594 108.155 155.691 109.959 160.909C91.9669 186.215 75.5834 170.417 73.828 164.712C72.4237 160.148 72.5603 142.234 72.8041 133.847C68.8545 131.945 60.809 121.852 66.9528 116.878C71.8679 112.899 81.0028 105.322 85.7813 101.08H93.9731C103.628 108.248 102.207 118.634 103.377 131.945Z" fill="url(#paint6_linear_1_378)"/>
</mask>
<g mask="url(#mask4_1_378)">
<path d="M96.3147 112.489C96.3147 119.356 91.2122 122.876 84.7226 122.876C78.2329 122.876 72.032 117.31 72.032 110.443C72.032 103.577 77.1346 100.056 83.6242 100.056C90.1138 100.056 96.3147 105.623 96.3147 112.489Z" fill="#647B64"/>
<path d="M95.2201 112.105C95.2201 118.355 90.4864 121.56 84.4659 121.56C78.4455 121.56 72.032 116.054 72.032 109.804C72.032 103.553 76.7657 100.349 82.7862 100.349C88.8067 100.349 95.2201 105.855 95.2201 112.105Z" fill="#647B64"/>
<path d="M75.2502 143.168C76.0683 139.834 71.2016 134.651 69.9841 133.262L67.6436 164.05L71.15 168.516C75.9714 167.176 72.3744 160.138 75.2502 154.034C77.0034 150.313 74.2275 147.336 75.2502 143.168Z" fill="url(#paint7_linear_1_378)"/>
<path d="M78.1635 148.329C79.1875 153.254 75.3842 159.739 87.5255 167.346C79.9189 167.346 74.5358 164.01 78.1635 148.329Z" fill="url(#paint8_linear_1_378)"/>
<path d="M79.1358 150.562C79.8779 152.093 79.1889 154.533 83.7502 156.029C81.2901 156.655 79.2709 156.004 79.1358 150.562Z" fill="url(#paint9_linear_1_378)"/>
<path d="M72.3247 133.847C76.2029 133.249 78.1759 134.286 84.5165 130.482C83.4654 131.647 73.7875 140.722 72.3247 133.847Z" fill="#647B64"/>
<path d="M122.061 149.437C119.361 154.844 115.017 149.437 110.028 149.437C100.931 137.977 102.566 123.961 100.931 113.891C96.0886 96.5546 81.4152 103.451 74.6655 99.0435C78.9697 95.5664 95.8832 92.0734 100.931 96.7749C107.24 102.652 122.061 143.119 122.061 149.437Z" fill="#647B64"/>
<path d="M63.8406 121.99L69.6918 108.971L73.2026 110.833L72.1786 113.514C71.2638 115.51 69.2254 118.669 66.6199 120.399C65.3034 120.399 66.2489 125.87 65.8885 126.086C65.2675 126.457 64.3048 121.785 63.8406 121.99Z" fill="url(#paint10_linear_1_378)"/>
</g>
<path d="M10.9034 298.409C0.476218 300.705 0.90528 293.284 2.42321 289.286C4.75773 301.047 22.408 293.564 30.9414 288.353C30.969 288.861 31.0037 289.963 30.9212 290.305C30.8181 290.731 23.9373 295.539 10.9034 298.409Z" fill="#C5F4F2"/>
<path d="M29.7996 283.111C31.3305 279.267 32.02 272.861 31.9506 270.035C30.7031 270.215 24.8236 268.414 22.2627 267.595C21.5067 270.723 18.3227 276.425 16.8807 278.033C8.44984 281.533 3.72895 286.994 2.42236 289.286C1.04998 304.305 29.758 291.378 30.7687 289.064C31.5773 287.213 30.4595 284.324 29.7996 283.111Z" fill="#F1FEFC"/>
<path d="M7.66821 283.785C8.49714 283.932 10.5646 284.809 12.2029 287.15" stroke="#14D1A4" stroke-width="0.877687" stroke-linecap="round" stroke-linejoin="round"/>
<path d="M11.4711 280.86C12.3001 281.006 14.3675 281.884 16.0058 284.224" stroke="#14D1A4" stroke-width="0.877687" stroke-linecap="round" stroke-linejoin="round"/>
<path d="M15.8605 278.227C16.6894 278.373 17.7329 278.519 19.3712 280.86" stroke="#14D1A4" stroke-width="0.877687" stroke-linecap="round" stroke-linejoin="round"/>
<path d="M23.466 262.618L22.2632 267.595C24.5059 271.267 29.0123 271.634 31.1617 271.25C31.3779 269.858 32.4099 267.539 32.8989 266.553C30.86 263.532 25.7607 262.671 23.466 262.618Z" fill="#F7FFFD"/>
<path d="M3.62891 289.277C4.04002 291.935 7.06997 296.459 15.9008 293.296" stroke="#AAFEE7" stroke-width="0.877687"/>
<path d="M26.5626 286.543C21.541 288.64 18.5929 292.743 17.1165 294.493C18.4777 294.34 21.9762 292.858 23.5552 292.136L26.5626 286.543Z" fill="#AAFEE7" stroke="#DAFFF5" stroke-width="0.292562"/>
<path d="M22.5109 268.526C24.5238 268.951 28.752 270.232 29.5617 271.956C30.5738 274.112 23.5928 271.93 22.5109 268.526Z" fill="white" stroke="#14D1A4" stroke-width="0.292562"/>
<path d="M22.4448 268.708C23.3437 270.772 24.9999 275.27 24.4335 276.751C23.1419 275.685 20.9359 272.584 22.4448 268.708Z" fill="white" stroke="#14D1A4" stroke-width="0.292562"/>
<path d="M22.033 268.377C20.1365 267.579 15.9316 266.224 14.284 267.181C12.2245 268.376 19.2055 270.558 22.033 268.377Z" stroke="#14D1A4" stroke-width="0.292562"/>
<path d="M21.9839 268.564C20.0697 269.749 16.1468 272.503 15.7689 274.043C17.4376 273.903 21.017 272.61 21.9839 268.564Z" stroke="#14D1A4" stroke-width="0.292562"/>
<path d="M22.7718 268.972C22.6704 269.255 22.5091 269.478 22.3378 269.613C22.1645 269.75 22.0007 269.783 21.8752 269.738C21.7497 269.693 21.6446 269.563 21.5977 269.348C21.5514 269.134 21.569 268.859 21.6703 268.577C21.7717 268.294 21.933 268.071 22.1044 267.936C22.2777 267.799 22.4415 267.766 22.567 267.811C22.6925 267.856 22.7976 267.986 22.8444 268.201C22.8908 268.415 22.8732 268.69 22.7718 268.972Z" fill="#14D1A4" stroke="#14D1A4" stroke-width="0.292562"/>
<path d="M86.2844 85.7804C93.0587 93.863 89.1071 102.09 86.2844 103.668C78.2659 114.908 72.6322 103.935 70.7313 98.0937C69.6944 92.8842 71.3534 89.9164 74.5331 86.8854C77.7129 83.8545 83.001 82.9388 86.2844 85.7804Z" fill="#FF7CA6"/>
<mask id="mask5_1_378" style="mask-type:alpha" maskUnits="userSpaceOnUse" x="70" y="83" width="21" height="26">
<path d="M86.5772 85.6875C93.3515 93.8062 89.3998 102.07 86.5772 103.655C78.5587 114.945 72.7632 103.876 70.8623 98.0089C69.8254 92.7761 71.6461 89.842 74.8259 86.7974C78.0057 83.7529 83.2938 82.8332 86.5772 85.6875Z" fill="#FF7CA6"/>
</mask>
<g mask="url(#mask5_1_378)">
<path d="M85.0513 86.5991C92.3653 94.0594 89.151 101.026 86.3441 102.602C78.3701 113.822 71.5885 102.491 69.6981 96.66C68.667 91.4595 69.299 96.0116 73.9167 94.3235C83.4422 90.8412 84.6124 85.7214 85.0513 86.5991Z" fill="#FEB3CB"/>
<path d="M85.051 87.6233C92.8039 98.1555 87.7274 102.282 84.9047 103.86C76.8862 115.1 70.5685 101.217 68.6675 95.3762C70.4229 95.6688 71.8842 98.2232 76.5667 95.815C81.6866 93.182 81.6866 93.9134 85.051 87.6233Z" fill="#FBC6D7"/>
<path d="M84.5005 92.145C84.1221 90.8925 84.2513 88.3917 85.1906 88.909C85.7356 88.909 86.3838 91.6883 86.3838 91.6883C87.389 94.4015 88.0383 99.3622 86.9536 100.203C85.305 98.2793 84.4316 97.1624 80.4542 96.9853C78.7218 94.6448 85.1906 94.4294 84.5005 92.145Z" fill="#FEF2F7" fill-opacity="0.3"/>
</g>
<path d="M75.2509 71.7789C74.7828 72.364 72.9104 72.9979 72.0327 73.2417C74.6658 76.7524 80.8388 84.1835 84.4666 85.8218C88.0944 87.4602 89.0988 93.3309 89.1476 96.0615C89.3817 96.5296 89.5377 99.7673 89.5864 101.328C91.1078 101.211 91.5537 98.8409 91.5865 97.6706C91.893 99.4809 91.6786 101.972 91.4881 103.229C93.5945 103.346 96.451 100.547 97.6159 99.1334C97.894 102.293 97.4964 104.015 97.1931 104.546C98.3633 103.961 101.289 102.059 103.629 99.1334C106.555 95.4764 102.898 91.8194 101.581 91.2342C100.265 90.6491 99.9724 78.3615 99.5336 75.2896C99.1825 72.8321 95.6815 69.6822 93.9749 68.4144C80.0782 61.978 75.836 71.0475 75.2509 71.7789Z" fill="url(#paint11_linear_1_378)"/>
<path d="M75.3973 91.7187C66.5034 97.3359 60.3303 89.8171 58.2824 85.1361C63.256 80.1625 62.3823 80.9374 66.6204 78.5534C68.9609 77.2369 70.1312 77.6757 71.0089 72.5559C72.8813 72.907 82.1262 74.165 85.3444 80.7477L86.3684 80.8939C98.656 83.0004 100.216 77.3344 99.3874 74.3113C105.122 83.9073 92.2684 84.9898 85.3444 84.2584C84.7593 85.5749 84.2912 86.1015 75.3973 91.7187Z" fill="url(#paint12_linear_1_378)"/>
<mask id="mask6_1_378" style="mask-type:alpha" maskUnits="userSpaceOnUse" x="58" y="72" width="43" height="22">
<path d="M75.3973 91.7187C66.5034 97.3359 60.3303 89.8171 58.2824 85.1361C63.256 80.1625 62.3823 80.9374 66.6204 78.5534C68.9609 77.2369 70.1312 77.6757 71.0089 72.5559C72.8813 72.907 82.1262 74.165 85.3444 80.7477L86.3684 80.8939C98.656 83.0004 100.216 77.3344 99.3874 74.3113C105.122 83.9073 92.2684 84.9898 85.3444 84.2584C84.7593 85.5749 84.2912 86.1015 75.3973 91.7187Z" fill="url(#paint13_linear_1_378)"/>
</mask>
<g mask="url(#mask6_1_378)">
<path d="M66.3278 96.9848L81.2485 89.817C78.4692 87.1839 72.7642 89.8116 68.9609 86.1545C65.1576 82.4975 69.2535 79.8645 65.4502 78.6942L53.6014 84.4046L66.3278 96.9848Z" fill="url(#paint14_linear_1_378)" fill-opacity="0.3"/>
<path d="M64.5339 81.1239C59.3578 83.0744 59.9785 84.05 58.4291 85.8811L57.4052 84.4183L62.2324 79.0059L70.1316 70.6544C73.2035 72.4098 70.2026 76.9217 69.4002 77.5296C67.7917 78.7483 66.9202 78.5821 65.5476 80.3567C65.2842 80.6974 64.9368 80.972 64.5339 81.1239Z" fill="#C1DBF7"/>
</g>
<path d="M70.8635 77.9684C71.0097 79.8213 74.813 82.9876 83.8825 84.3041" stroke="#BAD4F6" stroke-width="0.292562" stroke-linecap="round" stroke-linejoin="round"/>
<path d="M77.7018 77.6065C75.3873 77.05 74.4609 76.5456 73.3134 75.2344C72.8968 76.3797 73.7575 78.7057 74.319 78.7451C74.4375 78.7534 76.6124 77.5463 77.7018 77.6065Z" fill="#B8D2F6"/>
<path d="M74.8107 114.245C69.2838 108.373 55.5147 94.8909 49.6393 89.9073C49.4558 89.7517 49.3444 89.5392 49.3781 89.3009C49.8036 86.29 56.1606 75.2672 63.9859 67.5816C65.3024 64.3634 66.3264 64.5097 67.7892 60.4138C68.9595 57.1371 72.1776 56.708 73.933 57.3419C74.5181 57.5532 74.0881 58.4519 73.0553 58.6584C71.5925 58.951 70.5686 60.4138 70.5686 61.2915C70.5686 61.8946 69.9834 65.6799 74.2256 63.9245C75.3958 62.4617 76.1272 64.9485 71.4462 68.313C67.7892 69.9221 57.4033 85.4103 58.5735 86.1593C61.6537 87.0738 66.0774 94.1943 75.981 96.9841C86.3669 99.9097 96.0215 106.054 92.5107 114.245C89 122.437 81.8322 121.706 74.8107 114.245Z" fill="#FF7CA6"/>
<mask id="mask7_1_378" style="mask-type:alpha" maskUnits="userSpaceOnUse" x="49" y="57" width="45" height="64">
<path d="M74.8107 114.246C69.2838 108.373 55.5147 94.8914 49.6393 89.9078C49.4558 89.7522 49.3444 89.5397 49.3781 89.3014C49.8036 86.2905 56.1606 75.2677 63.9859 67.5821C65.3024 64.3639 66.3264 64.5101 67.7892 60.4143C68.9595 57.1376 72.1776 56.7085 73.933 57.3424C74.5181 57.5537 74.0881 58.4524 73.0553 58.6589C71.5925 58.9515 70.5686 60.4143 70.5686 61.292C70.5686 61.8951 69.9834 65.6804 74.2256 63.925C75.3958 62.4622 76.1272 64.949 71.4462 68.3135C67.7892 69.9226 57.4033 85.4108 58.5735 86.1598C61.6537 87.0743 66.0774 94.1948 75.981 96.9846C86.3669 99.9102 96.0215 106.054 92.5107 114.246C89 122.437 81.8322 121.706 74.8107 114.246Z" fill="#FF7CA6"/>
</mask>
<g mask="url(#mask7_1_378)">
<path d="M72.912 115.372C67.3851 109.499 53.616 96.0174 47.7406 91.0338C47.5571 90.8782 47.4457 90.6657 47.4794 90.4275C47.9049 87.4165 54.2619 76.3937 62.0872 68.7081C63.4038 65.4899 64.4277 65.6362 65.8905 61.5403C67.0608 58.2636 72.1782 56.1234 73.9336 56.7573C74.5187 56.9686 74.6738 58.5987 73.641 58.8053C72.1782 59.0978 71.3005 60.2307 71.008 61.2546C70.8423 61.8346 69.6915 65.2485 73.9336 63.4932C75.1039 62.0304 75.689 65.3879 69.8377 68.7081C66.1807 70.3172 55.5046 86.5368 56.6748 87.2858C59.755 88.2003 64.1787 95.3208 74.0823 98.1106C84.4682 101.036 94.1228 107.18 90.612 115.372C87.1013 123.563 79.9335 122.832 72.912 115.372Z" fill="#FEB3CB"/>
<mask id="mask8_1_378" style="mask-type:alpha" maskUnits="userSpaceOnUse" x="47" y="56" width="45" height="66">
<path d="M72.912 115.372C67.3851 109.499 53.616 96.0174 47.7406 91.0338C47.5571 90.8782 47.4457 90.6657 47.4794 90.4275C47.9049 87.4165 54.2619 76.3937 62.0872 68.7081C63.4038 65.4899 64.4277 65.6362 65.8905 61.5403C67.0608 58.2636 72.1782 56.1234 73.9336 56.7573C74.5187 56.9686 74.6738 58.5987 73.641 58.8053C72.1782 59.0978 71.3005 60.2307 71.008 61.2546C70.8423 61.8346 69.6915 65.2485 73.9336 63.4932C75.1039 62.0304 75.689 65.3879 69.8377 68.7081C66.1807 70.3172 55.5046 86.5368 56.6748 87.2858C59.755 88.2003 64.1787 95.3208 74.0823 98.1106C84.4682 101.036 94.1228 107.18 90.612 115.372C87.1013 123.563 79.9335 122.832 72.912 115.372Z" fill="#FEB3CB"/>
</mask>
<g mask="url(#mask8_1_378)">
<path d="M71.4495 115.483C65.9226 109.61 52.1535 96.1283 46.2781 91.1447C46.0946 90.9891 45.9832 90.7766 46.0169 90.5384C46.4424 87.5274 52.7994 76.5046 60.6247 68.819C61.9412 65.6008 62.9652 65.7471 64.428 61.6512C65.5983 58.3745 74.0802 55.8306 75.8355 56.4645C76.4207 56.6758 77.0058 60.0103 74.2265 59.5364C72.7559 59.2856 72.9123 60.6273 72.6197 61.6512C72.4541 62.2311 70.7157 64.3637 74.9579 62.6083C76.1281 61.1455 76.2744 63.9691 70.4231 67.2893C66.7661 68.8984 54.0421 86.6478 55.2123 87.3967C58.2925 88.3112 62.7162 95.4318 72.6197 98.2215C83.0057 101.147 92.6603 107.291 89.1495 115.483C85.6388 123.674 78.471 122.943 71.4495 115.483Z" fill="#FBC6D7"/>
<path d="M73.2023 57.7808C76.5668 60.4139 76.456 55.7329 74.2263 55.2941C71.7395 56.2693 64.4778 59.4777 63.6586 59.8288C62.6346 60.2676 47.8957 90.4015 46.7255 91.2792C45.7893 91.9814 53.2106 96.5453 55.9412 100.641L86.3676 123.607C87.099 120.535 85.1096 119.19 82.4181 117.902C79.0536 116.293 76.8594 115.416 75.3966 112.783C73.9337 110.149 67.2048 103.567 64.1329 100.641C61.061 97.7156 51.1139 90.6941 51.1139 88.4999C51.1139 86.9741 55.7949 79.5767 61.061 71.6776C67.7899 65.68 69.8277 55.1398 73.2023 57.7808Z" fill="#FEF2F7"/>
</g>
</g>
<path d="M130.106 142.039C134.609 152.659 132.318 152.811 119.428 158.276C106.537 163.742 92.6265 172.47 88.1235 161.85C83.6205 151.229 76.1057 126.127 88.9962 120.661C101.887 115.196 125.603 131.418 130.106 142.039Z" fill="url(#paint15_linear_1_378)"/>
<ellipse cx="109.65" cy="151.895" rx="26.395" ry="22.8704" transform="rotate(-22.9766 109.65 151.895)" fill="url(#paint16_radial_1_378)" fill-opacity="0.5"/>
<ellipse cx="109.518" cy="152.234" rx="24.5741" ry="20.8328" transform="rotate(-22.9766 109.518 152.234)" fill="#F0DCC5"/>
<ellipse cx="109.411" cy="151.646" rx="23.2587" ry="19.1628" transform="rotate(-22.9766 109.411 151.646)" fill="url(#paint17_radial_1_378)"/>
<mask id="mask9_1_378" style="mask-type:alpha" maskUnits="userSpaceOnUse" x="86" y="131" width="47" height="41">
<ellipse cx="109.411" cy="151.646" rx="23.2587" ry="19.1628" transform="rotate(-22.9766 109.411 151.646)" fill="#D16035"/>
</mask>
<g mask="url(#mask9_1_378)">
</g>
<defs>
<linearGradient id="paint0_linear_1_378" x1="123.694" y1="194.396" x2="112.067" y2="271.968" gradientUnits="userSpaceOnUse">
<stop stop-color="#FF78A3"/>
<stop offset="1" stop-color="#FF8EB2"/>
</linearGradient>
<linearGradient id="paint1_linear_1_378" x1="91.639" y1="159.592" x2="79.2002" y2="203.916" gradientUnits="userSpaceOnUse">
<stop stop-color="#647B64"/>
<stop offset="1" stop-color="#647B64"/>
</linearGradient>
<linearGradient id="paint2_linear_1_378" x1="91.639" y1="159.592" x2="79.2002" y2="203.916" gradientUnits="userSpaceOnUse">
<stop stop-color="#647B64"/>
<stop offset="1" stop-color="#647B64"/>
</linearGradient>
<linearGradient id="paint3_linear_1_378" x1="95.1443" y1="174.074" x2="92.6575" y2="180.803" gradientUnits="userSpaceOnUse">
<stop stop-color="#C1C5FF"/>
<stop offset="1" stop-color="#C7CAFF" stop-opacity="0"/>
</linearGradient>
<linearGradient id="paint4_linear_1_378" x1="72.6179" y1="170.856" x2="70.57" y2="161.641" gradientUnits="userSpaceOnUse">
<stop stop-color="#DBF3F8"/>
<stop offset="1" stop-color="#99B5F3"/>
</linearGradient>
<linearGradient id="paint5_linear_1_378" x1="87.433" y1="99.1785" x2="89.3346" y2="178.902" gradientUnits="userSpaceOnUse">
<stop stop-color="#647B64"/>
<stop offset="1" stop-color="#647B64"/>
</linearGradient>
<linearGradient id="paint6_linear_1_378" x1="87.4322" y1="99.1782" x2="89.3338" y2="178.901" gradientUnits="userSpaceOnUse">
<stop stop-color="#647B64"/>
<stop offset="1" stop-color="#647B64"/>
</linearGradient>
<linearGradient id="paint7_linear_1_378" x1="69.1046" y1="140.988" x2="75.764" y2="169.205" gradientUnits="userSpaceOnUse">
<stop stop-color="#99B5F3"/>
<stop offset="1" stop-color="#DBF3F8"/>
</linearGradient>
<linearGradient id="paint8_linear_1_378" x1="84.3073" y1="170.856" x2="74.3602" y2="156.374" gradientUnits="userSpaceOnUse">
<stop stop-color="#C1C5FF"/>
<stop offset="1" stop-color="#C1C5FF" stop-opacity="0"/>
</linearGradient>
<linearGradient id="paint9_linear_1_378" x1="84.905" y1="163.249" x2="78.4498" y2="153.599" gradientUnits="userSpaceOnUse">
<stop stop-color="#C1C5FF"/>
<stop offset="1" stop-color="#C1C5FF" stop-opacity="0"/>
</linearGradient>
<linearGradient id="paint10_linear_1_378" x1="73.7877" y1="126.378" x2="70.2769" y2="107.801" gradientUnits="userSpaceOnUse">
<stop stop-color="#647B64"/>
<stop offset="1" stop-color="#DBF3F8"/>
</linearGradient>
<linearGradient id="paint11_linear_1_378" x1="88.2699" y1="80.5557" x2="88.384" y2="104.546" gradientUnits="userSpaceOnUse">
<stop stop-color="#050753"/>
<stop offset="1" stop-color="#008294"/>
</linearGradient>
<linearGradient id="paint12_linear_1_378" x1="60.0378" y1="92.4501" x2="101.582" y2="79.2848" gradientUnits="userSpaceOnUse">
<stop stop-color="#647B64"/>
<stop offset="0.511301" stop-color="#647B64"/>
<stop offset="0.857583" stop-color="#5EC0DF"/>
<stop offset="1" stop-color="white"/>
</linearGradient>
<linearGradient id="paint13_linear_1_378" x1="81.6874" y1="83.2344" x2="104.215" y2="80.6014" gradientUnits="userSpaceOnUse">
<stop stop-color="#02C3CD"/>
<stop offset="1" stop-color="white"/>
</linearGradient>
<linearGradient id="paint14_linear_1_378" x1="66.7667" y1="92.4501" x2="67.9369" y2="81.479" gradientUnits="userSpaceOnUse">
<stop stop-color="white"/>
<stop offset="1" stop-color="#003BD5" stop-opacity="0"/>
<stop offset="1" stop-color="white"/>
</linearGradient>
<linearGradient id="paint15_linear_1_378" x1="88.8549" y1="128.288" x2="113.377" y2="170.854" gradientUnits="userSpaceOnUse">
<stop stop-color="#F5FF7C" stop-opacity="0"/>
<stop offset="0.544444" stop-color="#F0DCC5"/>
<stop offset="1" stop-color="#AD8B64"/>
</linearGradient>
<radialGradient id="paint16_radial_1_378" cx="0" cy="0" r="1" gradientUnits="userSpaceOnUse" gradientTransform="translate(109.966 179.921) rotate(-84.1426) scale(33.7603 38.9813)">
<stop stop-color="#FFEC3E"/>
<stop offset="1" stop-color="#F0DCC5"/>
</radialGradient>
<radialGradient id="paint17_radial_1_378" cx="0" cy="0" r="1" gradientUnits="userSpaceOnUse" gradientTransform="translate(108.163 135.28) rotate(91.0357) scale(44.6301 54.1694)">
<stop stop-color="#F0DCC5"/>
<stop offset="0.546875" stop-color="#F0DCC5"/>
<stop offset="1" stop-color="#CF9B5E"/>
</radialGradient>
<clipPath id="clip0_1_378">
<rect width="62.7604" height="82.0286" fill="white" transform="translate(86.0567) rotate(26.2336)"/>
</clipPath>
</defs>
</svg>
